<svg width="54" height="51" viewBox="0 0 54 51" fill="none" xmlns="http://www.w3.org/2000/svg">
<g filter="url(#filter0_d_2366_72)">
<rect width="46" height="43" transform="translate(4)" fill="#E4E0E0" fill-opacity="0.01"/>
<path fill-rule="evenodd" clip-rule="evenodd" d="M34.876 6.13691L27.327 2.10431C27.1056 1.98606 26.8347 1.98606 26.6133 2.10431L6.48829 12.8543C6.26476 12.9739 6.12604 13.1963 6.12604 13.4375V40.3125C6.12604 40.6834 6.44804 40.9844 6.84479 40.9844H47.0948C47.4923 40.9844 47.8135 40.6834 47.8135 40.3125V13.4375C47.8135 13.1963 47.6755 12.9739 47.452 12.8543L42.0635 9.976V2.6875C42.0635 2.31662 41.7423 2.01563 41.3448 2.01563H35.5948C35.198 2.01563 34.876 2.31662 34.876 2.6875V6.13691ZM36.3135 6.90486L37.7783 7.68692C38.1226 7.87102 38.2427 8.28153 38.0457 8.60403C37.8488 8.92586 37.4096 9.03806 37.0654 8.85397L26.9698 3.4615L7.56354 13.8272V39.6406H46.376V13.8272L40.9883 10.9495C40.7648 10.83 40.626 10.6069 40.626 10.3664V3.35938H36.3135V6.90486ZM37.0984 11.3392L27.3565 6.13556C27.1358 6.01731 26.8641 6.01731 26.6435 6.13556L10.1122 14.966C9.88797 15.0856 9.74997 15.308 9.74997 15.5492V37.625C9.74997 37.9959 10.072 38.2969 10.4687 38.2969H43.5312C43.928 38.2969 44.25 37.9959 44.25 37.625V15.5492C44.25 15.308 44.112 15.0856 43.8877 14.966L39.1648 12.4431C38.8205 12.259 38.3807 12.3706 38.1837 12.6931C37.9875 13.0149 38.1068 13.4254 38.4511 13.6095L42.8125 15.9389V36.9531H11.1875V15.9389L27 7.49275L36.3847 12.5056C36.7297 12.6897 37.1688 12.5775 37.3658 12.2557C37.5627 11.9338 37.4427 11.5227 37.0984 11.3392ZM26.264 14.8511C25.666 14.5958 25.2505 14.0314 25.2505 13.3777C25.2505 12.4834 26.0268 11.7578 26.9827 11.7578C27.9394 11.7578 28.7156 12.4834 28.7156 13.3777C28.7156 14.0314 28.2995 14.5958 27.7015 14.8511V28.8953C28.2075 28.8382 28.6948 28.7193 29.1562 28.5486V22.3808C29.1562 22.2727 29.1843 22.1665 29.2374 22.0704L32.8089 15.6446C32.5322 15.3577 32.364 14.9781 32.364 14.5622C32.364 13.668 33.1403 12.9423 34.0969 12.9423C35.0529 12.9423 35.8291 13.668 35.8291 14.5622C35.8291 15.4451 35.0708 16.1646 34.1307 16.1814L30.5937 22.5448V27.7935C32.2023 26.6647 33.2509 24.8244 33.2509 22.8438C33.2509 22.4729 33.5729 22.1719 33.9697 22.1719H37.0625V19.8264C36.4645 19.571 36.0483 19.0073 36.0483 18.3529C36.0483 17.4587 36.8253 16.733 37.7812 16.733C38.7372 16.733 39.5141 17.4587 39.5141 18.3529C39.5141 19.0073 39.098 19.571 38.5 19.8264V22.1719H39.673C40.0697 22.1719 40.3917 22.4729 40.3917 22.8438C40.3917 23.3853 40.3529 24.1868 40.2767 24.725C40.235 25.0206 39.9907 25.2551 39.6751 25.3015C39.6751 25.3015 38.1931 25.5185 38.1931 25.5178C38.1348 25.7543 38.0673 25.9888 37.9918 26.2213L39.1591 27.1014C39.4078 27.2889 39.494 27.6067 39.3718 27.8815C38.924 28.8926 38.3368 29.844 37.6238 30.7121C37.4298 30.9486 37.0927 31.0366 36.7951 30.9298L35.3957 30.4245C35.2182 30.6019 35.0349 30.7739 34.8451 30.9392L35.3849 32.2473C35.4999 32.5255 35.405 32.8413 35.152 33.0227C34.2234 33.6885 33.2057 34.2381 32.1247 34.6567C31.83 34.7702 31.4907 34.6896 31.2902 34.4578C31.2902 34.4578 30.3479 33.366 30.3486 33.366C30.0999 33.4372 29.8491 33.4997 29.5961 33.5548L29.3639 34.9402C29.3151 35.2345 29.0642 35.4636 28.748 35.5025C27.5879 35.645 26.412 35.645 25.252 35.5025C24.9357 35.4636 24.6849 35.2345 24.636 34.9402L24.4039 33.5548C24.1509 33.4997 23.9 33.4372 23.652 33.366L22.7098 34.4578C22.5092 34.6896 22.17 34.7702 21.8753 34.6567C20.7943 34.2381 19.7765 33.6885 18.8479 33.0227C18.5949 32.8413 18.5 32.5255 18.615 32.2473C18.615 32.2473 19.1548 30.9392 19.1548 30.9398C18.9651 30.7739 18.7818 30.6019 18.6043 30.4245L17.2049 30.9298C16.9073 31.0366 16.5702 30.9486 16.3761 30.7121C15.6631 29.844 15.0759 28.8926 14.6281 27.8815C14.5059 27.6067 14.5922 27.2889 14.8409 27.1014L16.0081 26.2213C15.9327 25.9895 15.8651 25.7543 15.8069 25.5185L14.3248 25.3015C14.0093 25.2551 13.7649 25.0206 13.7232 24.725C13.647 24.1868 13.6082 23.3853 13.6082 22.8438C13.6082 22.4729 13.9302 22.1719 14.327 22.1719H16.2187V19.8264C15.6207 19.571 15.2046 19.0073 15.2046 18.3529C15.2046 17.4587 15.9815 16.733 16.9375 16.733C17.8934 16.733 18.6704 17.4587 18.6704 18.3529C18.6704 19.0073 18.2542 19.571 17.6562 19.8264V22.1719H20.0303C20.4263 22.1719 20.7483 22.4729 20.7483 22.8438C20.7483 24.8244 21.7977 26.6647 23.4062 27.7935V17.9203L22.2188 16.8103C22.0478 16.8634 21.8638 16.8923 21.6733 16.8923C20.7174 16.8923 19.9411 16.1667 19.9411 15.2731C19.9411 14.3788 20.7174 13.6532 21.6733 13.6532C22.63 13.6532 23.4062 14.3788 23.4062 15.2731C23.4062 15.4934 23.3588 15.7037 23.2733 15.8959L24.6331 17.1671C24.7683 17.2927 24.8437 17.464 24.8437 17.6421V28.5486C25.2951 28.7159 25.7709 28.8328 26.264 28.8913V14.8511ZM19.3446 23.5156H15.0623C15.0702 23.695 15.0817 23.8784 15.0953 24.0538L16.5199 24.2627C16.821 24.3064 17.0597 24.5234 17.115 24.8036C17.2113 25.288 17.3479 25.7644 17.5233 26.228C17.6253 26.4967 17.5348 26.7964 17.2976 26.9751L16.1713 27.8244C16.4624 28.4069 16.8067 28.9639 17.2005 29.4906L18.5503 29.0042C18.835 28.9014 19.1577 28.978 19.3554 29.1943C19.6975 29.5685 20.0705 29.9173 20.4708 30.2371C20.703 30.4225 20.7849 30.7242 20.675 30.9902L20.1539 32.2513C20.7174 32.6195 21.3139 32.9414 21.9364 33.2135L22.8449 32.1613C23.0361 31.9396 23.3566 31.8543 23.6441 31.9497C24.1408 32.1143 24.6504 32.2419 25.1679 32.3313C25.4676 32.383 25.6998 32.6061 25.7472 32.8883L25.9707 34.224C26.6557 34.2797 27.3443 34.2797 28.0292 34.224L28.2528 32.8883C28.3002 32.6061 28.5324 32.383 28.8321 32.3313C29.3496 32.2419 29.8592 32.1143 30.3558 31.9497C30.6433 31.8543 30.9639 31.9396 31.1551 32.1613L32.0636 33.2135C32.686 32.9414 33.2826 32.6195 33.8461 32.2513L33.325 30.9902C33.215 30.7242 33.2969 30.4225 33.5291 30.2371C33.9294 29.9173 34.3025 29.5685 34.6446 29.1943C34.8423 28.978 35.165 28.9014 35.4496 29.0042L36.7994 29.4906C37.1933 28.9639 37.5376 28.4069 37.8287 27.8244L36.7024 26.9751C36.4652 26.7964 36.3746 26.4967 36.4767 26.228C36.6521 25.7644 36.7886 25.288 36.8849 24.8036C36.9403 24.5234 37.1789 24.3064 37.4801 24.2627L38.9046 24.0538C38.9183 23.8784 38.9298 23.695 38.9377 23.5156H34.6554C34.4024 26.0775 32.7212 28.3558 30.3716 29.4993C30.2653 29.5954 30.1273 29.6606 29.9734 29.6801C29.0585 30.0637 28.0537 30.2787 27 30.2787C25.9463 30.2787 24.9415 30.0637 24.0265 29.6801C23.8727 29.6606 23.7347 29.5954 23.6283 29.4993C21.2787 28.3558 19.5976 26.0775 19.3446 23.5156ZM37.7812 18.0768C37.9444 18.0768 38.0766 18.2004 38.0766 18.3529C38.0766 18.5048 37.9444 18.6284 37.7812 18.6284C37.6181 18.6284 37.4858 18.5048 37.4858 18.3529C37.4858 18.2004 37.6181 18.0768 37.7812 18.0768ZM16.9375 18.0768C17.1006 18.0768 17.2329 18.2004 17.2329 18.3529C17.2329 18.5048 17.1006 18.6284 16.9375 18.6284C16.7743 18.6284 16.6421 18.5048 16.6421 18.3529C16.6421 18.2004 16.7743 18.0768 16.9375 18.0768ZM21.6733 14.9969C21.8365 14.9969 21.9687 15.1205 21.9687 15.2731C21.9687 15.4249 21.8365 15.5485 21.6733 15.5485C21.5109 15.5485 21.3786 15.4249 21.3786 15.2731C21.3786 15.1205 21.5109 14.9969 21.6733 14.9969ZM34.0969 14.2861C34.2593 14.2861 34.3916 14.4097 34.3916 14.5622C34.3916 14.7141 34.2593 14.8377 34.0969 14.8377C33.9338 14.8377 33.8015 14.7141 33.8015 14.5622C33.8015 14.4097 33.9338 14.2861 34.0969 14.2861ZM26.9827 13.1016C27.1459 13.1016 27.2781 13.2252 27.2781 13.3777C27.2781 13.5295 27.1459 13.6532 26.9827 13.6532C26.8203 13.6532 26.688 13.5295 26.688 13.3777C26.688 13.2252 26.8203 13.1016 26.9827 13.1016Z" fill="#0672CB" stroke="#0672CB" stroke-miterlimit="2" stroke-linejoin="round"/>
</g>
<defs>
<filter id="filter0_d_2366_72" x="0" y="0" width="54" height="51" filterUnits="userSpaceOnUse" color-interpolation-filters="sRGB">
<feFlood flood-opacity="0" result="BackgroundImageFix"/>
<feColorMatrix in="SourceAlpha" type="matrix" values="0 0 0 0 0 0 0 0 0 0 0 0 0 0 0 0 0 0 127 0" result="hardAlpha"/>
<feOffset dy="4"/>
<feGaussianBlur stdDeviation="2"/>
<feComposite in2="hardAlpha" operator="out"/>
<feColorMatrix type="matrix" values="0 0 0 0 0 0 0 0 0 0 0 0 0 0 0 0 0 0 0.25 0"/>
<feBlend mode="normal" in2="BackgroundImageFix" result="effect1_dropShadow_2366_72"/>
<feBlend mode="normal" in="SourceGraphic" in2="effect1_dropShadow_2366_72" result="shape"/>
</filter>
</defs>
</svg>
