<svg width="26" height="32" viewBox="0 0 26 32" fill="none" xmlns="http://www.w3.org/2000/svg">
<g clip-path="url(#clip0_2311_20)" filter="url(#filter0_d_2311_20)">
<path d="M13 6H8.2C7.0799 6 6.51984 6 6.09202 6.21799C5.71569 6.40973 5.40973 6.71569 5.21799 7.09202C5 7.51984 5 8.0799 5 9.2V20.8C5 21.9201 5 22.4802 5.21799 22.908C5.40973 23.2843 5.71569 23.5903 6.09202 23.782C6.51984 24 7.0799 24 8.2 24H12M13 6L19 12M13 6V10.4C13 10.9601 13 11.2401 13.109 11.454C13.2049 11.6421 13.3578 11.7951 13.546 11.891C13.7599 12 14.0399 12 14.6 12H19M19 12V14M19.2686 22.2686L21 24M20 20.5C20 21.8807 18.8807 23 17.5 23C16.1193 23 15 21.8807 15 20.5C15 19.1193 16.1193 18 17.5 18C18.8807 18 20 19.1193 20 20.5Z" stroke="white" stroke-width="2" stroke-linecap="round" stroke-linejoin="round"/>
</g>
<defs>
<filter id="filter0_d_2311_20" x="-3" y="0" width="32" height="32" filterUnits="userSpaceOnUse" color-interpolation-filters="sRGB">
<feFlood flood-opacity="0" result="BackgroundImageFix"/>
<feColorMatrix in="SourceAlpha" type="matrix" values="0 0 0 0 0 0 0 0 0 0 0 0 0 0 0 0 0 0 127 0" result="hardAlpha"/>
<feOffset dy="4"/>
<feGaussianBlur stdDeviation="2"/>
<feComposite in2="hardAlpha" operator="out"/>
<feColorMatrix type="matrix" values="0 0 0 0 0 0 0 0 0 0 0 0 0 0 0 0 0 0 0.25 0"/>
<feBlend mode="normal" in2="BackgroundImageFix" result="effect1_dropShadow_2311_20"/>
<feBlend mode="normal" in="SourceGraphic" in2="effect1_dropShadow_2311_20" result="shape"/>
</filter>
<clipPath id="clip0_2311_20">
<rect width="24" height="24" fill="white" transform="translate(1)"/>
</clipPath>
</defs>
</svg>
